<svg xmlns="http://www.w3.org/2000/svg" width="28.721" height="36"><path data-name="Union 4" d="M1.394 36A1.4 1.4 0 0 1 0 34.606v-.115-32.95-.074-.073A1.4 1.4 0 0 1 1.394 0h18.921a1.385 1.385 0 0 1 .633.152A1.441 1.441 0 0 1 22 1.541v7.687a1.441 1.441 0 1 1-2.882 0v-6.44H2.882v30.424h16.24v-6.525a1.441 1.441 0 0 1 2.882 0v7.686a1.44 1.44 0 0 1-.755 1.268 1.39 1.39 0 0 1-.934.359zm22.262-14.532a1.362 1.362 0 0 1 0-1.972l.147-.141H12.819a1.394 1.394 0 1 1 0-2.788H24.1l-.442-.428a1.36 1.36 0 0 1 0-1.971 1.475 1.475 0 0 1 2.038 0l2.564 2.481a1.367 1.367 0 0 1 .423.974 1.4 1.4 0 0 1-.512 1.45l-2.475 2.395a1.474 1.474 0 0 1-2.038 0z" fill="#fff"/></svg>