<svg xmlns="http://www.w3.org/2000/svg" width="49.424" height="93.286"><g data-name="Group 198" fill="#fff"><circle data-name="Ellipse 21" cx="10.399" cy="10.399" r="10.399" transform="translate(13.983)"/><path data-name="Path 22" d="M28.445 31.578h2.594a2.1 2.1 0 0 1 1.907 1.208c5.148 1.979 6.368 8.284 6.611 12.237h5.626c-2.449-11.38-8.868-20.645-18.068-23.678l-2.592 2.611-2.511-2.636h-.026c-1.285.308-14.8 6.3-17.744 23.7h8.292a46.707 46.707 0 0 1 1.346-4.652v4.652h22.346a15.248 15.248 0 0 0-1.035-5.453c.032.086-1.3-3.055-3.475-3.883a2.031 2.031 0 0 1-.678.115h-2.593a2.112 2.112 0 1 1 0-4.224zm-1.392 9.525l-2.5 3.432h-.048l-2.512-3.432L24.5 24.34h.053z"/><path data-name="Rectangle 73" d="M0 46.125h49.424v5.383H0z"/><path data-name="Path 23" d="M7.486 93.287h34.452l3.418-40.552H4.068z"/></g></svg>