<svg xmlns="http://www.w3.org/2000/svg" width="29.032" height="36"><g fill="#fff"><path data-name="Path 86" d="M20.323.921V8.71h7.789z"/><path data-name="Path 87" d="M19.161 9.29V0h-18A1.161 1.161 0 0 0 0 1.161v33.678A1.161 1.161 0 0 0 1.161 36h26.71a1.161 1.161 0 0 0 1.161-1.161V9.871h-9.29a.581.581 0 0 1-.581-.581zm-11.613 0h4.645a.581.581 0 1 1 0 1.161H7.548a.581.581 0 0 1 0-1.161zm13.936 18.581H7.548a.581.581 0 0 1 0-1.161h13.936a.581.581 0 1 1 0 1.161zm0-5.806H7.548a.581.581 0 0 1 0-1.161h13.936a.581.581 0 0 1 0 1.161zm.581-6.387a.58.58 0 0 1-.581.581H7.548a.581.581 0 0 1 0-1.161h13.936a.58.58 0 0 1 .581.579z"/></g></svg>