<svg xmlns="http://www.w3.org/2000/svg" width="36" height="36"><path data-name="Path 88" d="M35.5 15.1l-4.611-.615a13.265 13.265 0 0 0-1.291-3.112l2.827-3.7a.581.581 0 0 0-.051-.763l-3.288-3.28a.578.578 0 0 0-.763-.051l-3.7 2.827a13.266 13.266 0 0 0-3.112-1.291L20.9.5a.582.582 0 0 0-.576-.5h-4.647a.58.58 0 0 0-.575.5l-.615 4.611a13.266 13.266 0 0 0-3.112 1.291l-3.7-2.827a.579.579 0 0 0-.763.051L3.63 6.914a.58.58 0 0 0-.051.763l2.827 3.7a13.266 13.266 0 0 0-1.291 3.112L.5 15.1a.582.582 0 0 0-.5.576v4.645a.58.58 0 0 0 .5.575l4.611.615a13.266 13.266 0 0 0 1.291 3.112l-2.827 3.7a.581.581 0 0 0 .051.763l3.288 3.284a.581.581 0 0 0 .764.051l3.7-2.827a13.267 13.267 0 0 0 3.112 1.291l.61 4.615a.58.58 0 0 0 .575.5h4.645a.58.58 0 0 0 .575-.5l.615-4.611a13.266 13.266 0 0 0 3.112-1.291l3.7 2.827a.581.581 0 0 0 .764-.051l3.285-3.285a.58.58 0 0 0 .051-.763l-2.827-3.7a13.265 13.265 0 0 0 1.291-3.112L35.5 20.9a.581.581 0 0 0 .5-.576v-4.647a.58.58 0 0 0-.5-.577zM18 23.226A5.226 5.226 0 1 1 23.226 18 5.225 5.225 0 0 1 18 23.226z" fill="#fff"/></svg>